<?xml version="1.0" encoding="UTF-8" standalone="no"?>
<svg
   xmlns:dc="http://purl.org/dc/elements/1.1/"
   xmlns:cc="http://creativecommons.org/ns#"
   xmlns:rdf="http://www.w3.org/1999/02/22-rdf-syntax-ns#"
   xmlns:svg="http://www.w3.org/2000/svg"
   xmlns="http://www.w3.org/2000/svg"
   xmlns:sodipodi="http://sodipodi.sourceforge.net/DTD/sodipodi-0.dtd"
   xmlns:inkscape="http://www.inkscape.org/namespaces/inkscape"
   version="1.1"
   x="0px"
   y="0px"
   viewBox="0 0 75.019997 100"
   enable-background="new 0 0 100 100"
   xml:space="preserve"
   id="svg26"
   sodipodi:docname="noun_Patent_582626.svg"
   width="75.019997"
   height="100"
   inkscape:version="1.0.1 (3bc2e813f5, 2020-09-07)"><metadata
     id="metadata32"><rdf:RDF><cc:Work
         rdf:about=""><dc:format>image/svg+xml</dc:format><dc:type
           rdf:resource="http://purl.org/dc/dcmitype/StillImage" /><dc:title></dc:title></cc:Work></rdf:RDF></metadata><defs
     id="defs30" /><sodipodi:namedview
     pagecolor="#ffffff"
     bordercolor="#666666"
     borderopacity="1"
     objecttolerance="10"
     gridtolerance="10"
     guidetolerance="10"
     inkscape:pageopacity="0"
     inkscape:pageshadow="2"
     inkscape:window-width="1920"
     inkscape:window-height="1016"
     id="namedview28"
     showgrid="false"
     fit-margin-top="0"
     fit-margin-left="0"
     fit-margin-right="0"
     fit-margin-bottom="0"
     inkscape:zoom="6.352"
     inkscape:cx="37.5"
     inkscape:cy="86.5995"
     inkscape:window-x="0"
     inkscape:window-y="0"
     inkscape:window-maximized="1"
     inkscape:current-layer="svg26" /><g
     id="g4"
     transform="translate(-12.5,0.006)"><path
       d="m 85.02,99.994 c -0.006,0 -0.014,0 -0.02,0 H 15 c -1.381,0 -2.5,-1.118 -2.5,-2.499 V 2.505 c 0,-1.38 1.119,-2.5 2.5,-2.5 l 69.993,-0.011 c 0.663,0 1.299,0.263 1.768,0.732 0.469,0.469 0.732,1.105 0.732,1.768 L 87.5,97.177 c 0.014,0.104 0.02,0.211 0.02,0.318 0,1.381 -1.12,2.499 -2.5,2.499 z M 17.5,94.995 h 65 L 82.492,4.995 17.5,5.004 Z"
       id="path2" /></g><g
     id="g10"
     transform="translate(-12.5,0.006)"><path
       d="M 73.72,21.003 H 26.28 c -1.381,0 -2.5,-1.119 -2.5,-2.5 0,-1.381 1.119,-2.5 2.5,-2.5 h 47.44 c 1.381,0 2.5,1.119 2.5,2.5 0,1.381 -1.119,2.5 -2.5,2.5 z"
       id="path6" /><path
       d="M 57.69,32.752 H 26.28 c -1.381,0 -2.5,-1.119 -2.5,-2.5 0,-1.38 1.119,-2.5 2.5,-2.5 h 31.41 c 1.381,0 2.5,1.119 2.5,2.5 0,1.381 -1.119,2.5 -2.5,2.5 z"
       id="path8" /></g><g
     id="g20"
     transform="translate(-12.5,0.006)"><path
       d="m 57.11,75.097 c -8.882,0 -16.107,-7.224 -16.107,-16.104 0,-8.881 7.226,-16.105 16.107,-16.105 8.881,0 16.105,7.225 16.105,16.105 10e-4,8.88 -7.224,16.104 -16.105,16.104 z m 0,-27.21 c -6.125,0 -11.107,4.982 -11.107,11.106 0,6.123 4.983,11.104 11.107,11.104 6.124,0 11.105,-4.981 11.105,-11.104 C 68.216,52.869 63.234,47.887 57.11,47.887 Z"
       id="path12" /><g
       id="g18"><path
         d="m 49.546,90.145 c -0.398,0 -0.802,-0.095 -1.178,-0.296 L 37.48,84.022 c -0.588,-0.314 -1.027,-0.852 -1.217,-1.491 -0.19,-0.64 -0.117,-1.327 0.203,-1.913 l 7.56,-13.803 c 0.663,-1.211 2.183,-1.656 3.394,-0.991 1.211,0.663 1.655,2.183 0.992,3.394 l -6.348,11.588 6.48,3.467 6.373,-11.631 c 0.663,-1.213 2.184,-1.655 3.394,-0.991 1.211,0.663 1.654,2.182 0.991,3.393 L 51.74,88.846 c -0.454,0.829 -1.31,1.299 -2.194,1.299 z"
         id="path14" /><path
         d="m 64.672,90.145 c -0.884,0 -1.74,-0.47 -2.194,-1.299 L 54.917,75.043 c -0.663,-1.211 -0.22,-2.729 0.991,-3.393 1.209,-0.664 2.73,-0.222 3.394,0.991 l 6.371,11.631 6.48,-3.467 -6.348,-11.588 c -0.663,-1.211 -0.22,-2.73 0.991,-3.394 1.209,-0.664 2.73,-0.221 3.394,0.991 l 7.561,13.803 c 0.321,0.586 0.395,1.273 0.204,1.913 -0.191,0.64 -0.629,1.177 -1.217,1.491 L 65.85,89.849 c -0.376,0.201 -0.78,0.296 -1.178,0.296 z"
         id="path16" /></g></g></svg>
