<?xml version="1.0" encoding="UTF-8" standalone="no"?>
<svg
   xmlns:dc="http://purl.org/dc/elements/1.1/"
   xmlns:cc="http://creativecommons.org/ns#"
   xmlns:rdf="http://www.w3.org/1999/02/22-rdf-syntax-ns#"
   xmlns:svg="http://www.w3.org/2000/svg"
   xmlns="http://www.w3.org/2000/svg"
   xmlns:sodipodi="http://sodipodi.sourceforge.net/DTD/sodipodi-0.dtd"
   xmlns:inkscape="http://www.inkscape.org/namespaces/inkscape"
   xml:space="preserve"
   version="1.1"
   style="clip-rule:evenodd;fill-rule:evenodd;image-rendering:optimizeQuality;shape-rendering:geometricPrecision;text-rendering:geometricPrecision"
   viewBox="0 0 23.821 23.820998"
   x="0px"
   y="0px"
   id="svg18"
   sodipodi:docname="noun_Book_1230262.svg"
   width="23.820999"
   height="23.820999"
   inkscape:version="0.92.3 (unknown)"><metadata
     id="metadata22"><rdf:RDF><cc:Work
         rdf:about=""><dc:format>image/svg+xml</dc:format><dc:type
           rdf:resource="http://purl.org/dc/dcmitype/StillImage" /><dc:title></dc:title></cc:Work></rdf:RDF></metadata><sodipodi:namedview
     pagecolor="#ffffff"
     bordercolor="#666666"
     borderopacity="1"
     objecttolerance="10"
     gridtolerance="10"
     guidetolerance="10"
     inkscape:pageopacity="0"
     inkscape:pageshadow="2"
     inkscape:window-width="3840"
     inkscape:window-height="2049"
     id="namedview20"
     showgrid="false"
     fit-margin-top="0"
     fit-margin-left="0"
     fit-margin-right="0"
     fit-margin-bottom="0"
     inkscape:zoom="7.9257796"
     inkscape:cx="-25.62524"
     inkscape:cy="8.9328737"
     inkscape:window-x="0"
     inkscape:window-y="55"
     inkscape:window-maximized="1"
     inkscape:current-layer="svg18" /><defs
     id="defs4"><style
       type="text/css"
       id="style2">
   
    .fil0 {fill:none}
    .fil1 {fill:black;fill-rule:nonzero}
   
  </style></defs><g
     id="g12"><g
       id="g10"><rect
         class="fil0"
         width="23.820999"
         height="23.820999"
         id="rect6"
         x="0"
         y="0"
         style="fill:none" /><path
         class="fil1"
         d="M 5.39,2.816 H 19.491 V 1.075 H 3.987 c -0.24,0 -0.458,0.098 -0.616,0.255 -0.157,0.158 -0.255,0.376 -0.255,0.616 0,0.239 0.098,0.457 0.255,0.615 0.158,0.157 0.376,0.255 0.616,0.255 z m 3.678,8.522 h 8.522 v 1.064 H 9.068 Z m 0,-2.841 H 17.59 V 9.562 H 9.068 Z M 20.555,2.816 h 1.246 V 23.811 H 5.59 C 4.641,23.811 3.801,23.117 3.176,22.178 2.472,21.122 2.02,19.718 2.02,18.719 V 1.794 H 2.058 C 2.095,1.323 2.303,0.897 2.62,0.581 L 2.622,0.578 C 2.973,0.228 3.456,0.011 3.987,0.011 H 20.555 Z M 5.922,22.746 H 20.737 V 3.881 H 20.555 5.922 Z"
         id="path8"
         inkscape:connector-curvature="0"
         style="fill:#000000;fill-rule:nonzero" /></g></g></svg>