<?xml version="1.0" encoding="UTF-8" standalone="no"?>
<svg
   xmlns:dc="http://purl.org/dc/elements/1.1/"
   xmlns:cc="http://creativecommons.org/ns#"
   xmlns:rdf="http://www.w3.org/1999/02/22-rdf-syntax-ns#"
   xmlns:svg="http://www.w3.org/2000/svg"
   xmlns="http://www.w3.org/2000/svg"
   xmlns:sodipodi="http://sodipodi.sourceforge.net/DTD/sodipodi-0.dtd"
   xmlns:inkscape="http://www.inkscape.org/namespaces/inkscape"
   version="1.1"
   x="0px"
   y="0px"
   viewBox="0 0 508.03754 456.95493"
   enable-background="new 0 0 512 512"
   xml:space="preserve"
   id="svg14"
   sodipodi:docname="noun_code_587999.svg"
   width="508.03754"
   height="456.95493"
   inkscape:version="1.0.1 (3bc2e813f5, 2020-09-07)"><metadata
     id="metadata20"><rdf:RDF><cc:Work
         rdf:about=""><dc:format>image/svg+xml</dc:format><dc:type
           rdf:resource="http://purl.org/dc/dcmitype/StillImage" /><dc:title></dc:title></cc:Work></rdf:RDF></metadata><defs
     id="defs18" /><sodipodi:namedview
     pagecolor="#ffffff"
     bordercolor="#666666"
     borderopacity="1"
     objecttolerance="10"
     gridtolerance="10"
     guidetolerance="10"
     inkscape:pageopacity="0"
     inkscape:pageshadow="2"
     inkscape:window-width="1920"
     inkscape:window-height="1016"
     id="namedview16"
     showgrid="false"
     fit-margin-top="0"
     fit-margin-left="0"
     fit-margin-right="0"
     fit-margin-bottom="0"
     inkscape:zoom="0.43862718"
     inkscape:cx="377.54343"
     inkscape:cy="46.223601"
     inkscape:window-x="0"
     inkscape:window-y="0"
     inkscape:window-maximized="1"
     inkscape:current-layer="svg14" /><g
     id="g8"
     transform="translate(-1.975,-27.524549)"><path
       d="M 502.6,238.6 401,137 c -9.9,-9.9 -26,-9.9 -35.9,0 -9.9,9.9 -9.9,26 0,35.9 l 83.6,83.6 -83.7,83.7 c -9.9,9.9 -9.9,26 0,35.9 7.8,7.8 27.1,8.8 35.9,0 L 502.5,274.5 c 10,-9.9 10,-25.9 0.1,-35.9 z"
       id="path2" /><path
       d="m 147,137 c -9.9,-9.9 -26,-9.9 -35.9,0 L 9.4,238.6 c -9.9,9.9 -9.9,26 0,35.9 L 111,376.2 c 8.8,8.8 28.1,7.8 35.9,0 9.9,-9.9 9.9,-26 0,-35.9 L 63.3,256.7 147,173 c 9.9,-10 9.9,-26 0,-36 z"
       id="path4" /><path
       d="m 327.1,28.7 c -13.4,-4.2 -27.6,3.2 -31.8,16.7 l -127,406.4 c -4.2,13.4 3.1,28.1 16.7,31.8 14.5,3.9 28.4,-5.8 31.8,-16.7 l 127,-406.4 c 4.1,-13.4 -3.3,-27.6 -16.7,-31.8 z"
       id="path6" /></g></svg>
