<?xml version="1.0" encoding="UTF-8" standalone="no"?>
<svg
   xmlns:dc="http://purl.org/dc/elements/1.1/"
   xmlns:cc="http://creativecommons.org/ns#"
   xmlns:rdf="http://www.w3.org/1999/02/22-rdf-syntax-ns#"
   xmlns:svg="http://www.w3.org/2000/svg"
   xmlns="http://www.w3.org/2000/svg"
   xmlns:sodipodi="http://sodipodi.sourceforge.net/DTD/sodipodi-0.dtd"
   xmlns:inkscape="http://www.inkscape.org/namespaces/inkscape"
   version="1.2"
   x="0px"
   y="0px"
   viewBox="0 0 34.185001 45.355"
   xml:space="preserve"
   id="svg8"
   sodipodi:docname="noun_Robot_22552.svg"
   width="34.185001"
   height="45.355"
   inkscape:version="1.0.2 (e86c870879, 2021-01-15)"><metadata
     id="metadata14"><rdf:RDF><cc:Work
         rdf:about=""><dc:format>image/svg+xml</dc:format><dc:type
           rdf:resource="http://purl.org/dc/dcmitype/StillImage" /><dc:title></dc:title></cc:Work></rdf:RDF></metadata><defs
     id="defs12" /><sodipodi:namedview
     pagecolor="#ffffff"
     bordercolor="#666666"
     borderopacity="1"
     objecttolerance="10"
     gridtolerance="10"
     guidetolerance="10"
     inkscape:pageopacity="0"
     inkscape:pageshadow="2"
     inkscape:window-width="1920"
     inkscape:window-height="1016"
     id="namedview10"
     showgrid="false"
     fit-margin-top="0"
     fit-margin-left="0"
     fit-margin-right="0"
     fit-margin-bottom="0"
     inkscape:zoom="3.9612848"
     inkscape:cx="13.467801"
     inkscape:cy="51.263516"
     inkscape:window-x="0"
     inkscape:window-y="0"
     inkscape:window-maximized="1"
     inkscape:current-layer="svg8" /><path
     d="M 0,16.634 H 5.112 V 29.295 H 1.133 v 0.8 h 3.979 v 1.801 H 0 Z m 29.073,0 v 12.661 h 3.98 v 0.8 h -3.98 v 1.801 h 5.112 V 16.634 Z M 17.492,42.955 h 7.961 v 0.8 h -7.961 v 1.6 h 9.262 V 34.878 h -9.262 z m -10.06,2.399 h 9.262 v -1.6 H 8.733 v -0.8 h 7.961 V 34.878 H 7.432 Z M 17.093,0 c -2.135,0 -3.906,1.637 -4.288,3.799 h 8.574 C 20.998,1.638 19.226,0 17.093,0 Z m 8.33,15.115 H 8.763 V 4.572 h 16.66 z M 19.908,8.404 c 0,0.57 0.462,1.032 1.033,1.032 0.57,0 1.032,-0.462 1.032,-1.032 0,-0.571 -0.462,-1.034 -1.032,-1.034 -0.571,0 -1.033,0.462 -1.033,1.034 z m -7.696,0 c 0,0.57 0.462,1.032 1.032,1.032 0.57,0 1.033,-0.462 1.033,-1.032 0,-0.571 -0.463,-1.034 -1.033,-1.034 -0.57,0 -1.032,0.462 -1.032,1.034 z m -0.485,4.898 h 1.98 v -1.933 h -1.98 z m 2.754,0 h 2.425 v -1.933 h -2.425 z m 3.198,0 h 2.027 v -1.933 h -2.027 z m 4.778,-1.933 h -1.979 v 1.933 h 1.979 z M 7.99,11.056 V 7.816 C 7.925,7.813 7.859,7.804 7.791,7.804 c -1.473,0 -2.665,0.729 -2.665,1.632 0,0.901 1.192,1.633 2.665,1.633 0.068,0 0.134,-0.01 0.199,-0.013 z M 26.394,7.804 c -0.067,0 -0.134,0.009 -0.199,0.012 v 3.24 c 0.065,0.003 0.132,0.013 0.199,0.013 1.473,0 2.665,-0.731 2.665,-1.633 0,-0.902 -1.192,-1.632 -2.665,-1.632 z m 1.907,8.379 V 34.107 H 5.885 V 16.183 c 0,-0.16 0.134,-0.295 0.293,-0.295 h 21.83 c 0.159,-10e-4 0.293,0.134 0.293,0.295 z m -6.522,8.815 c 0,-2.589 -2.098,-4.688 -4.688,-4.688 -2.588,0 -4.686,2.099 -4.686,4.688 0,2.59 2.098,4.688 4.686,4.688 2.591,-0.001 4.688,-2.099 4.688,-4.688 z M 17.092,22.17 c -1.56,0 -2.826,1.265 -2.826,2.828 0,1.562 1.267,2.826 2.826,2.826 1.562,0 2.828,-1.265 2.828,-2.826 0,-1.563 -1.267,-2.828 -2.828,-2.828 z"
     id="path2" /></svg>
