<?xml version="1.0" encoding="UTF-8" standalone="no"?>
<svg
   xmlns:dc="http://purl.org/dc/elements/1.1/"
   xmlns:cc="http://creativecommons.org/ns#"
   xmlns:rdf="http://www.w3.org/1999/02/22-rdf-syntax-ns#"
   xmlns:svg="http://www.w3.org/2000/svg"
   xmlns="http://www.w3.org/2000/svg"
   xmlns:sodipodi="http://sodipodi.sourceforge.net/DTD/sodipodi-0.dtd"
   xmlns:inkscape="http://www.inkscape.org/namespaces/inkscape"
   version="1.1"
   x="0px"
   y="0px"
   viewBox="0 0 20 20"
   enable-background="new 0 0 20 20"
   xml:space="preserve"
   id="svg14"
   sodipodi:docname="noun_Gift_797120.svg"
   width="20"
   height="20"
   inkscape:version="1.0.1 (3bc2e813f5, 2020-09-07)"><metadata
     id="metadata20"><rdf:RDF><cc:Work
         rdf:about=""><dc:format>image/svg+xml</dc:format><dc:type
           rdf:resource="http://purl.org/dc/dcmitype/StillImage" /><dc:title></dc:title></cc:Work></rdf:RDF></metadata><defs
     id="defs18" /><sodipodi:namedview
     pagecolor="#ffffff"
     bordercolor="#666666"
     borderopacity="1"
     objecttolerance="10"
     gridtolerance="10"
     guidetolerance="10"
     inkscape:pageopacity="0"
     inkscape:pageshadow="2"
     inkscape:window-width="1920"
     inkscape:window-height="1016"
     id="namedview16"
     showgrid="false"
     fit-margin-top="0"
     fit-margin-left="0"
     fit-margin-right="0"
     fit-margin-bottom="0"
     inkscape:zoom="11.228856"
     inkscape:cx="31.179593"
     inkscape:cy="13.954696"
     inkscape:window-x="0"
     inkscape:window-y="0"
     inkscape:window-maximized="1"
     inkscape:current-layer="svg14" /><g
     id="g8"><path
       fill="#000000"
       d="M 19,5 H 16.2 C 16.7,4.5 17,3.8 17,3 17,1.3 15.7,0 14,0 13,0 11.2,0.9 10,2.1 8.8,0.9 7,0 6,0 4.3,0 3,1.3 3,3 3,3.8 3.3,4.5 3.8,5 H 1 C 0.4,5 0,5.4 0,6 V 8.8 C 0,8.9 0.1,9 0.2,9 H 8.6 C 8.8,9 9,8.8 9,8.6 V 5.4 C 9,5.2 9.2,5 9.4,5 h 1.2 C 10.8,5 11,5.2 11,5.4 V 8.6 C 11,8.8 11.2,9 11.4,9 h 8.4 C 19.9,9 20,8.9 20,8.8 V 6 C 20,5.4 19.6,5 19,5 Z M 6,4 C 5.4,4 5,3.6 5,3 5,2.4 5.4,2 6,2 6.6,2 8.4,3.2 8.9,3.8 8.6,3.9 6,4 6,4 Z m 8,0 C 14,4 11.4,3.9 11.1,3.8 11.7,3.1 13.4,2 14,2 c 0.6,0 1,0.4 1,1 0,0.6 -0.4,1 -1,1 z"
       id="path2" /><path
       fill="#000000"
       d="M 8.6,11 H 1.2 C 1.1,11 1,11.1 1,11.2 V 19 c 0,0.6 0.4,1 1,1 H 8.6 C 8.8,20 9,19.8 9,19.6 V 11.4 C 9,11.2 8.8,11 8.6,11 Z"
       id="path4" /><path
       fill="#000000"
       d="M 18.8,11 H 11.4 C 11.2,11 11,11.2 11,11.4 v 8.2 c 0,0.2 0.2,0.4 0.4,0.4 H 18 c 0.6,0 1,-0.4 1,-1 V 11.2 C 19,11.1 18.9,11 18.8,11 Z"
       id="path6" /></g></svg>
